<svg viewBox="0 0 32 32" xmlns="http://www.w3.org/2000/svg" fill="none">
  <path d="M16 4 L28 16 M16.5 3.5 L28.5 15.5" stroke="white" stroke-width="0.8" stroke-opacity="0.6" stroke-linecap="round" />
  <path d="M28 16 L16 28 M28.5 16.5 L15.5 27.5" stroke="white" stroke-width="0.8" stroke-opacity="0.6" stroke-linecap="round" />
  <path d="M16 28 L4 16 M15.5 28.5 L4.5 16.5" stroke="white" stroke-width="0.8" stroke-opacity="0.6" stroke-linecap="round" />
  <path d="M4 16 L16 4 M3.5 15.5 L15.5 3.5" stroke="white" stroke-width="1.2" stroke-opacity="0.8" stroke-linecap="round" />
  
  <path d="M4 16 L6 14 M4 16 L2 18 M4 16 L5 19 M4 16 L2 15" stroke="white" stroke-width="1.5" stroke-opacity="0.9" stroke-linecap="round" />
  <path d="M3 17 L6 14 M5 18 L2 15 M4 16 L7 13 M3 15 L5 18" stroke="white" stroke-width="1" stroke-opacity="0.7" stroke-linecap="round" />
  <path d="M4 16 L2 14 M4 16 L6 18 M3 16 L5 16" stroke="white" stroke-width="2" stroke-opacity="1" stroke-linecap="round" />
  
  <path d="M14 6 L18 4 M26 14 L29 17 M18 26 L14 29" stroke="white" stroke-width="0.4" stroke-opacity="0.3" stroke-linecap="round" />
</svg>
